# xmcd
#
# Track frame offsets:
#	150
#	20551
#	39095
#	70897
#	84828
#	127826
#	144741
#	163823
#	181277
#	190584
#	212452
#	229247
#	259319
#	293227
#	303715
#
# Disc length: 4176 seconds
#
# Revision: 3
# Processed by: cddbd v1.5.2PL0 Copyright (c) Steve Scherf et al.
# Submitted via: EZCDAudioConverter 2.1.7.1
#
DISCID=cf104e0f
DTITLE=V/A - Beyond Saturn
DYEAR=2015
DGENRE=MOJO
TTITLE0=Toy - Motoring
TTITLE1=Syd Arthur - Ode (Summer Is Leaving Me Behind) [Amorphous Androgynous 
TTITLE1=Remix]
TTITLE2=Temples - Sand Dance [Beyond The Wizard's Sleeve Reanimation]
TTITLE3=Panda Bear - Butcher Baker Candlestick Maker
TTITLE4=Neu! - Negativland
TTITLE5=Public Service Broadcasting - Gagarin
TTITLE6=Ryley Walker - Same Minds
TTITLE7=Mulatu Astatke - Yekatit
TTITLE8=Basil Kirchin - Primitive London 2
TTITLE9=Charles Mingus - Passions Of A Man
TTITLE10=Erland and The Carnival - Radiation
TTITLE11=Serpent Power - Lucifer's Dreambox
TTITLE12=Supefjord - A Love Supreme
TTITLE13=Santo and Johnny - Sleep Walk
TTITLE14=Sun Ra and His Arkestra - Tapestry From An Asteroid
EXTD=
EXTT0=
EXTT1=
EXTT2=
EXTT3=
EXTT4=
EXTT5=
EXTT6=
EXTT7=
EXTT8=
EXTT9=
EXTT10=
EXTT11=
EXTT12=
EXTT13=
EXTT14=
PLAYORDER=
